<svg xmlns="http://www.w3.org/2000/svg" viewBox="0 0 32 32" width="512" height="512" shape-rendering="crispEdges">
<rect x="0" y="0" width="32" height="32" fill="none"/>
<rect x="13" y="2" width="6" height="1" fill="#3c2d2a"/>
<rect x="12" y="3" width="1" height="1" fill="#3c2d2a"/>
<rect x="13" y="3" width="6" height="1" fill="#e14646"/>
<rect x="19" y="3" width="1" height="1" fill="#3c2d2a"/>
<rect x="11" y="4" width="1" height="1" fill="#3c2d2a"/>
<rect x="12" y="4" width="8" height="1" fill="#e14646"/>
<rect x="20" y="4" width="1" height="1" fill="#3c2d2a"/>
<rect x="10" y="5" width="1" height="1" fill="#3c2d2a"/>
<rect x="11" y="5" width="10" height="1" fill="#e14646"/>
<rect x="21" y="5" width="1" height="1" fill="#3c2d2a"/>
<rect x="10" y="6" width="1" height="1" fill="#3c2d2a"/>
<rect x="11" y="6" width="10" height="1" fill="#e14646"/>
<rect x="21" y="6" width="1" height="1" fill="#3c2d2a"/>
<rect x="10" y="7" width="1" height="1" fill="#3c2d2a"/>
<rect x="11" y="7" width="10" height="1" fill="#e14646"/>
<rect x="21" y="7" width="1" height="1" fill="#3c2d2a"/>
<rect x="10" y="8" width="1" height="1" fill="#3c2d2a"/>
<rect x="11" y="8" width="2" height="1" fill="#ffdbb4"/>
<rect x="13" y="8" width="6" height="1" fill="#bc3434"/>
<rect x="19" y="8" width="2" height="1" fill="#ffdbb4"/>
<rect x="21" y="8" width="1" height="1" fill="#3c2d2a"/>
<rect x="10" y="9" width="1" height="1" fill="#3c2d2a"/>
<rect x="11" y="9" width="2" height="1" fill="#ffdbb4"/>
<rect x="13" y="9" width="6" height="1" fill="#bc3434"/>
<rect x="19" y="9" width="2" height="1" fill="#ffdbb4"/>
<rect x="21" y="9" width="1" height="1" fill="#3c2d2a"/>
<rect x="11" y="10" width="1" height="1" fill="#3c2d2a"/>
<rect x="12" y="10" width="2" height="1" fill="#ffdbb4"/>
<rect x="14" y="10" width="1" height="1" fill="#2d2422"/>
<rect x="15" y="10" width="3" height="1" fill="#ffdbb4"/>
<rect x="18" y="10" width="1" height="1" fill="#2d2422"/>
<rect x="19" y="10" width="1" height="1" fill="#ffdbb4"/>
<rect x="20" y="10" width="1" height="1" fill="#3c2d2a"/>
<rect x="9" y="11" width="2" height="1" fill="#3c2d2a"/>
<rect x="12" y="11" width="1" height="1" fill="#3c2d2a"/>
<rect x="13" y="11" width="6" height="1" fill="#ffdbb4"/>
<rect x="19" y="11" width="1" height="1" fill="#3c2d2a"/>
<rect x="21" y="11" width="2" height="1" fill="#3c2d2a"/>
<rect x="8" y="12" width="1" height="1" fill="#3c2d2a"/>
<rect x="9" y="12" width="2" height="1" fill="#5096d2"/>
<rect x="11" y="12" width="1" height="1" fill="#3c2d2a"/>
<rect x="12" y="12" width="2" height="1" fill="#5096d2"/>
<rect x="14" y="12" width="1" height="1" fill="#ffdbb4"/>
<rect x="15" y="12" width="2" height="1" fill="#c47064"/>
<rect x="17" y="12" width="1" height="1" fill="#ffdbb4"/>
<rect x="18" y="12" width="2" height="1" fill="#5096d2"/>
<rect x="20" y="12" width="1" height="1" fill="#8e6a2c"/>
<rect x="21" y="12" width="2" height="1" fill="#5096d2"/>
<rect x="23" y="12" width="1" height="1" fill="#3c2d2a"/>
<rect x="8" y="13" width="1" height="1" fill="#3c2d2a"/>
<rect x="9" y="13" width="6" height="1" fill="#5096d2"/>
<rect x="15" y="13" width="2" height="1" fill="#ffdbb4"/>
<rect x="17" y="13" width="1" height="1" fill="#5096d2"/>
<rect x="18" y="13" width="1" height="1" fill="#3c7ab4"/>
<rect x="19" y="13" width="3" height="1" fill="#8e6a2c"/>
<rect x="22" y="13" width="1" height="1" fill="#5096d2"/>
<rect x="23" y="13" width="1" height="1" fill="#3c2d2a"/>
<rect x="8" y="14" width="1" height="1" fill="#3c2d2a"/>
<rect x="9" y="14" width="9" height="1" fill="#5096d2"/>
<rect x="18" y="14" width="2" height="1" fill="#8e6a2c"/>
<rect x="20" y="14" width="3" height="1" fill="#5096d2"/>
<rect x="23" y="14" width="1" height="1" fill="#3c2d2a"/>
<rect x="8" y="15" width="1" height="1" fill="#3c2d2a"/>
<rect x="9" y="15" width="2" height="1" fill="#ffdbb4"/>
<rect x="11" y="15" width="5" height="1" fill="#5096d2"/>
<rect x="16" y="15" width="3" height="1" fill="#8e6a2c"/>
<rect x="19" y="15" width="2" height="1" fill="#3c7ab4"/>
<rect x="21" y="15" width="2" height="1" fill="#ffdbb4"/>
<rect x="23" y="15" width="1" height="1" fill="#3c2d2a"/>
<rect x="8" y="16" width="1" height="1" fill="#3c2d2a"/>
<rect x="9" y="16" width="2" height="1" fill="#ffdbb4"/>
<rect x="11" y="16" width="4" height="1" fill="#5096d2"/>
<rect x="15" y="16" width="3" height="1" fill="#8e6a2c"/>
<rect x="18" y="16" width="3" height="1" fill="#3c7ab4"/>
<rect x="21" y="16" width="2" height="1" fill="#ffdbb4"/>
<rect x="23" y="16" width="1" height="1" fill="#3c2d2a"/>
<rect x="8" y="17" width="1" height="1" fill="#3c2d2a"/>
<rect x="9" y="17" width="2" height="1" fill="#ffdbb4"/>
<rect x="11" y="17" width="3" height="1" fill="#5096d2"/>
<rect x="14" y="17" width="2" height="1" fill="#8e6a2c"/>
<rect x="16" y="17" width="1" height="1" fill="#5096d2"/>
<rect x="17" y="17" width="4" height="1" fill="#3c7ab4"/>
<rect x="21" y="17" width="2" height="1" fill="#ffdbb4"/>
<rect x="23" y="17" width="1" height="1" fill="#3c2d2a"/>
<rect x="8" y="18" width="1" height="1" fill="#3c2d2a"/>
<rect x="9" y="18" width="2" height="1" fill="#ffdbb4"/>
<rect x="11" y="18" width="2" height="1" fill="#5096d2"/>
<rect x="13" y="18" width="2" height="1" fill="#8e6a2c"/>
<rect x="15" y="18" width="3" height="1" fill="#5096d2"/>
<rect x="18" y="18" width="3" height="1" fill="#3c7ab4"/>
<rect x="21" y="18" width="2" height="1" fill="#ffdbb4"/>
<rect x="23" y="18" width="1" height="1" fill="#3c2d2a"/>
<rect x="8" y="19" width="1" height="1" fill="#3c2d2a"/>
<rect x="9" y="19" width="1" height="1" fill="#ffdbb4"/>
<rect x="10" y="19" width="3" height="1" fill="#b0863a"/>
<rect x="13" y="19" width="1" height="1" fill="#8e6a2c"/>
<rect x="14" y="19" width="5" height="1" fill="#5096d2"/>
<rect x="19" y="19" width="1" height="1" fill="#3c7ab4"/>
<rect x="20" y="19" width="1" height="1" fill="#3c2d2a"/>
<rect x="21" y="19" width="2" height="1" fill="#ffdbb4"/>
<rect x="23" y="19" width="1" height="1" fill="#3c2d2a"/>
<rect x="8" y="20" width="1" height="1" fill="#3c2d2a"/>
<rect x="9" y="20" width="2" height="1" fill="#ffdbb4"/>
<rect x="11" y="20" width="2" height="1" fill="#b0863a"/>
<rect x="13" y="20" width="5" height="1" fill="#445070"/>
<rect x="18" y="20" width="2" height="1" fill="#343e5c"/>
<rect x="20" y="20" width="1" height="1" fill="#445070"/>
<rect x="21" y="20" width="2" height="1" fill="#ffdbb4"/>
<rect x="23" y="20" width="1" height="1" fill="#3c2d2a"/>
<rect x="8" y="21" width="1" height="1" fill="#3c2d2a"/>
<rect x="9" y="21" width="1" height="1" fill="#ffdbb4"/>
<rect x="10" y="21" width="3" height="1" fill="#b0863a"/>
<rect x="13" y="21" width="4" height="1" fill="#445070"/>
<rect x="17" y="21" width="4" height="1" fill="#343e5c"/>
<rect x="21" y="21" width="1" height="1" fill="#3c2d2a"/>
<rect x="22" y="21" width="1" height="1" fill="#ffdbb4"/>
<rect x="23" y="21" width="1" height="1" fill="#3c2d2a"/>
<rect x="9" y="22" width="2" height="1" fill="#3c2d2a"/>
<rect x="11" y="22" width="6" height="1" fill="#445070"/>
<rect x="17" y="22" width="4" height="1" fill="#343e5c"/>
<rect x="21" y="22" width="2" height="1" fill="#3c2d2a"/>
<rect x="11" y="23" width="1" height="1" fill="#3c2d2a"/>
<rect x="12" y="23" width="6" height="1" fill="#445070"/>
<rect x="18" y="23" width="2" height="1" fill="#343e5c"/>
<rect x="20" y="23" width="1" height="1" fill="#3c2d2a"/>
<rect x="11" y="24" width="1" height="1" fill="#3c2d2a"/>
<rect x="12" y="24" width="3" height="1" fill="#ffdbb4"/>
<rect x="15" y="24" width="2" height="1" fill="#3c2d2a"/>
<rect x="17" y="24" width="3" height="1" fill="#ffdbb4"/>
<rect x="20" y="24" width="1" height="1" fill="#3c2d2a"/>
<rect x="11" y="25" width="1" height="1" fill="#3c2d2a"/>
<rect x="12" y="25" width="3" height="1" fill="#ffdbb4"/>
<rect x="15" y="25" width="2" height="1" fill="#3c2d2a"/>
<rect x="17" y="25" width="3" height="1" fill="#ffdbb4"/>
<rect x="20" y="25" width="1" height="1" fill="#3c2d2a"/>
<rect x="11" y="26" width="1" height="1" fill="#3c2d2a"/>
<rect x="12" y="26" width="3" height="1" fill="#ffdbb4"/>
<rect x="15" y="26" width="2" height="1" fill="#3c2d2a"/>
<rect x="17" y="26" width="3" height="1" fill="#ffdbb4"/>
<rect x="20" y="26" width="1" height="1" fill="#3c2d2a"/>
<rect x="11" y="27" width="1" height="1" fill="#3c2d2a"/>
<rect x="12" y="27" width="3" height="1" fill="#f8f8f6"/>
<rect x="15" y="27" width="2" height="1" fill="#3c2d2a"/>
<rect x="17" y="27" width="3" height="1" fill="#f8f8f6"/>
<rect x="20" y="27" width="1" height="1" fill="#3c2d2a"/>
<rect x="11" y="28" width="1" height="1" fill="#3c2d2a"/>
<rect x="12" y="28" width="3" height="1" fill="#f8f8f6"/>
<rect x="15" y="28" width="2" height="1" fill="#3c2d2a"/>
<rect x="17" y="28" width="3" height="1" fill="#f8f8f6"/>
<rect x="20" y="28" width="1" height="1" fill="#3c2d2a"/>
<rect x="11" y="29" width="1" height="1" fill="#3c2d2a"/>
<rect x="12" y="29" width="1" height="1" fill="#e14646"/>
<rect x="13" y="29" width="2" height="1" fill="#f8f8f6"/>
<rect x="15" y="29" width="2" height="1" fill="#3c2d2a"/>
<rect x="17" y="29" width="1" height="1" fill="#e14646"/>
<rect x="18" y="29" width="2" height="1" fill="#f8f8f6"/>
<rect x="20" y="29" width="1" height="1" fill="#3c2d2a"/>
<rect x="11" y="30" width="1" height="1" fill="#3c2d2a"/>
<rect x="12" y="30" width="3" height="1" fill="#5f5550"/>
<rect x="15" y="30" width="2" height="1" fill="#3c2d2a"/>
<rect x="17" y="30" width="3" height="1" fill="#5f5550"/>
<rect x="20" y="30" width="1" height="1" fill="#3c2d2a"/>
<rect x="12" y="31" width="3" height="1" fill="#3c2d2a"/>
<rect x="17" y="31" width="3" height="1" fill="#3c2d2a"/>
</svg>